# xmcd CD database file
# Copyright (C) 1997 Ti Kan
# 
# Track frame offsets:
#     150
#     16225
#     28800
#     45910
#     64675
#     81703
#     95783
#     109073
#     124120
#     136583
#     150003
# 
# Disc length: 2246 seconds
# 
# Revision: 1
# Processed by: cddbd v1.4b41PL1 Copyright (c) Steve Scherf et al.
# Submitted via: DiscPlay 4.0.4
# 
DISCID=8208c40b
DTITLE=BRUSH ARBOR - FAVORITES
DYEAR=1900
DGENRE=
TTITLE0=IF I DIDN'T HAVE LOVE
TTITLE1=HIDE AWAY
TTITLE2=HELLO GOD
TTITLE3=PLESE MAKE YOURSELF KNOWN
TTITLE4=HERE I AM
TTITLE5=THEN CAME YOU
TTITLE6=RESCUE ME
TTITLE7=OH' I LOVE YOU
TTITLE8=ONLY FOR THE LOVE OF THE LORD
TTITLE9=I WILL FOLLOW
TTITLE10=PSALM 103
EXTD=
EXTT0=
EXTT1=
EXTT2=
EXTT3=
EXTT4=
EXTT5=
EXTT6=
EXTT7=
EXTT8=
EXTT9=
EXTT10=
PLAYORDER=
